{"title":"Rabba Mai Kya Karoon (2013) WebRip Xvid [1CD] IcTv Hindi","uid":8938718,"size":735951080,"categoryP":"video","categoryS":"movies","magnet":"?xt=urn:btih:8c0155c0fe8e9e6ee535b388583b291cb5b66cb2&amp;dn=Rabba+Mai+Kya+Karoon+%282013%29+WebRip+Xvid+%5B1CD%5D+IcTv+Hindi&amp;tr=udp%3A%2F%2Ftracker.openbittorrent.com%3A80&amp;tr=udp%3A%2F%2Fopen.demonii.com%3A1337&amp;tr=udp%3A%2F%2Ftracker.coppersurfer.tk%3A6969&amp;tr=udp%3A%2F%2Fexodus.desync.com%3A6969","seeders":0,"leechers":2,"uploader":"SJonam","files":1,"time":1379624325,"description":" &lt;a href=&quot;http://picturestack.com/194/211/pLB1Z5w.jpg&quot; rel=&quot;nofollow&quot; target=&quot;_NEW&quot;&gt;http://picturestack.com/194/211/pLB1Z5w.jpg&lt;/a&gt; &lt;a href=&quot;\nhttp://s11.postimg.org/7jt6peogz/vlcsnap_2013_09_18_20h32m45s115.png&quot; rel=&quot;nofollow&quot; target=&quot;_NEW&quot;&gt;\nhttp://s11.postimg.org/7jt6peogz/vlcsnap_2013_09_18_20h32m45s115.png&lt;/a&gt; &lt;a href=&quot;\nhttp://s11.postimg.org/4qzz5do4j/vlcsnap_2013_09_18_20h34m02s154.png&quot; rel=&quot;nofollow&quot; target=&quot;_NEW&quot;&gt;\nhttp://s11.postimg.org/4qzz5do4j/vlcsnap_2013_09_18_20h34m02s154.png&lt;/a&gt; &lt;a href=&quot;\nhttp://s11.postimg.org/js29mn6ub/vlcsnap_2013_09_18_20h37m01s159.png&quot; rel=&quot;nofollow&quot; target=&quot;_NEW&quot;&gt;\nhttp://s11.postimg.org/js29mn6ub/vlcsnap_2013_09_18_20h37m01s159.png&lt;/a&gt; &lt;a href=&quot;\nhttp://s11.postimg.org/nyn41z6g3/vlcsnap_2013_09_18_20h40m16s57.png&quot; rel=&quot;nofollow&quot; target=&quot;_NEW&quot;&gt;\nhttp://s11.postimg.org/nyn41z6g3/vlcsnap_2013_09_18_20h40m16s57.png&lt;/a&gt; &lt;a href=&quot;\nhttp://s11.postimg.org/dv2zjkf37/vlcsnap_2013_09_18_20h42m40s170.png&quot; rel=&quot;nofollow&quot; target=&quot;_NEW&quot;&gt;\nhttp://s11.postimg.org/dv2zjkf37/vlcsnap_2013_09_18_20h42m40s170.png&lt;/a&gt;\n\nMedia Info - \nVideo\nID : 0\nFormat : MPEG-4 Visual\nFormat profile : Advanced Simple@L5\nFormat settings, BVOP : 2\nFormat settings, QPel : No\nFormat settings, GMC : No warppoints\nFormat settings, Matrix : Default (H.263)\nCodec ID : XVID\nCodec ID/Hint : XviD\nDuration : 1h 55mn\nBit rate : 763 Kbps\nWidth : 640 pixels\nHeight : 272 pixels\nDisplay aspect ratio : 2.35:1\nFrame rate : 25.000 fps\nColor space : YUV\nChroma subsampling : 4:2:0\nBit depth : 8 bits\nScan type : Progressive\nCompression mode : Lossy\nBits/(Pixel*Frame) : 0.175\nStream size : 628 MiB (89%)\nWriting library : XviD 1.2.1 (UTC 2008-12-04)\n\nAudio\nID : 1\nFormat : MPEG Audio\nFormat version : Version 1\nFormat profile : Layer 3\nMode : Joint stereo\nMode extension : MS Stereo\nCodec ID : 55\nCodec ID/Hint : MP3\nDuration : 1h 55mn\nBit rate mode : Constant\nBit rate : 80.0 Kbps\nChannel(s) : 2 channels\nSampling rate : 32.0 KHz\nCompression mode : Lossy\nStream size : 65.8 MiB (9%)\nAlignment : Split accross interleaves\nInterleave, duration : 40 ms (1.00 video frame)\nInterleave, preload duration : 500 ms\nWriting library : LAME3.99r\nEncoding settings : -m j -V 4 -q 2 -lowpass 13.5 -b 80\n\nSample - http://www.sendspace.com/file/si269i\n\nRipper : MeRCuRY\n\nSeeding 24x7... Extreme Seeding...\n\n\nEnjoy!\n","torrent":{"xt":"urn:btih:8c0155c0fe8e9e6ee535b388583b291cb5b66cb2","amp;dn":"Rabba+Mai+Kya+Karoon+%282013%29+WebRip+Xvid+%5B1CD%5D+IcTv+Hindi","amp;tr":["udp%3A%2F%2Ftracker.openbittorrent.com%3A80","udp%3A%2F%2Fopen.demonii.com%3A1337","udp%3A%2F%2Ftracker.coppersurfer.tk%3A6969","udp%3A%2F%2Fexodus.desync.com%3A6969"],"infoHash":"8c0155c0fe8e9e6ee535b388583b291cb5b66cb2","infoHashBuffer":{"type":"Buffer","data":[140,1,85,192,254,142,158,110,229,53,179,136,88,59,41,28,181,182,108,178]},"announce":[],"urlList":[]}}